<?xml version="1.0" encoding="utf-8"?>
<!-- Generator: Adobe Illustrator 16.0.0, SVG Export Plug-In . SVG Version: 6.00 Build 0)  -->
<!DOCTYPE svg PUBLIC "-//W3C//DTD SVG 1.1//EN" "http://www.w3.org/Graphics/SVG/1.1/DTD/svg11.dtd">
<svg version="1.1" id="Calque_1" xmlns="http://www.w3.org/2000/svg" xmlns:xlink="http://www.w3.org/1999/xlink" x="0px" y="0px"
	 width="100px" height="100px" viewBox="0 0 100 100" enable-background="new 0 0 100 100" xml:space="preserve">
<g>
	<path fill="#4B4B4B" d="M31.957,28.934l5.449,0.218c0.016-0.404,0.087-4.025-2.369-6.581c-1.012-1.053-2.848-2.309-5.845-2.309
		c-1.672,0-2.904-0.56-3.766-1.712c-0.818-1.093-1.108-2.473-1.108-3.323c0-1.506-1.221-2.727-2.727-2.727s-2.727,1.221-2.727,2.727
		c0,2.29,0.82,4.754,2.195,6.59c1.331,1.778,3.822,3.898,8.132,3.898c1.291,0,1.749,0.467,1.899,0.621
		c0.733,0.749,0.873,2.18,0.864,2.623L31.957,28.934z"/>
	<path fill="#4B4B4B" d="M51.191,28.934l5.449,0.218c0.017-0.404,0.087-4.025-2.368-6.581c-1.013-1.053-2.849-2.309-5.845-2.309
		c-1.672,0-2.904-0.56-3.766-1.712c-0.818-1.093-1.108-2.473-1.108-3.323c0-1.506-1.221-2.727-2.727-2.727s-2.727,1.221-2.727,2.727
		c0,2.291,0.82,4.754,2.195,6.59c1.331,1.778,3.822,3.898,8.132,3.898c1.291,0,1.749,0.467,1.899,0.621
		c0.733,0.749,0.872,2.181,0.863,2.623L51.191,28.934z"/>
	<path fill="#4B4B4B" d="M80.68,39.203c-1.648-1.712-3.576-3.06-5.725-4.004c-2.244-0.985-4.625-1.484-7.08-1.484h-6.616H38.762
		h-5.454H21.415c-4.029,0-7.306,3.277-7.306,7.306v19.228c0,3.677,0.721,7.246,2.144,10.609c1.373,3.246,3.337,6.16,5.838,8.66
		c2.501,2.502,5.415,4.466,8.661,5.838c3.363,1.424,6.933,2.145,10.609,2.145c3.683,0,7.258-0.724,10.625-2.15
		c3.25-1.377,6.166-3.348,8.668-5.855s4.466-5.429,5.835-8.682c0.01-0.027,0.021-0.055,0.033-0.082h1.354
		c2.396,0,4.727-0.477,6.926-1.417c2.107-0.901,4.008-2.191,5.646-3.833c1.711-1.713,3.053-3.721,3.992-5.969
		c0.965-2.315,1.455-4.775,1.451-7.311c-0.002-2.469-0.473-4.868-1.395-7.13C83.6,42.875,82.316,40.9,80.68,39.203z M60.476,70.73
		C56.77,77.475,49.601,82.047,41.36,82.047l0,0c-12.039,0-21.798-9.76-21.798-21.799V41.021c0-1.023,0.83-1.853,1.853-1.853h11.893
		h5.454h22.497c1.021,0,1.851,0.827,1.853,1.848l0.047,19.18c0.005,1.75-0.199,3.451-0.584,5.082
		C62.118,67.207,61.406,69.037,60.476,70.73z M80.438,52.207c0.008,7.121-5.471,12.916-12.289,13.066
		c0.311-1.667,0.469-3.367,0.463-5.092l-0.045-19.179c-0.002-0.625-0.082-1.236-0.234-1.826
		C75.053,39.426,80.43,45.162,80.438,52.207L80.438,52.207z"/>
</g>
</svg>
