<?xml version="1.0" encoding="utf-8"?>
<!-- Generator: Adobe Illustrator 16.0.0, SVG Export Plug-In . SVG Version: 6.00 Build 0)  -->
<!DOCTYPE svg PUBLIC "-//W3C//DTD SVG 1.1//EN" "http://www.w3.org/Graphics/SVG/1.1/DTD/svg11.dtd">
<svg version="1.1" id="Calque_1" xmlns="http://www.w3.org/2000/svg" xmlns:xlink="http://www.w3.org/1999/xlink" x="0px" y="0px"
	 width="100px" height="100px" viewBox="0 0 100 100" enable-background="new 0 0 100 100" xml:space="preserve">
<path fill="#4B4B4B" d="M34.223,71.948c-0.274,1.35-0.168,2.747,0.307,4.04c0.475,1.292,1.299,2.425,2.381,3.275l8.462,6.65
	c1.302,1.022,2.931,1.586,4.587,1.586c1.646,0,3.266-0.557,4.564-1.568l8.543-6.658c1.086-0.846,1.913-1.976,2.394-3.267
	c0.48-1.29,0.592-2.687,0.323-4.036L57.51,30.37c-0.132-0.666-0.355-1.306-0.659-1.905c0.589-0.841,1.002-1.802,1.203-2.82
	l0.845-4.284c0.432-2.187-0.133-4.429-1.548-6.151c-1.416-1.722-3.506-2.709-5.735-2.709h-3.376c-2.258,0-4.365,1.008-5.781,2.767
	s-1.953,4.032-1.473,6.238l0.934,4.284c0.229,1.045,0.682,2.027,1.317,2.875c-0.25,0.532-0.438,1.095-0.556,1.676L34.223,71.948z
	 M59.721,74.981l-8.542,6.658c-0.359,0.279-0.79,0.419-1.219,0.419c-0.433,0-0.865-0.142-1.225-0.424l-8.462-6.648
	c-0.589-0.464-0.866-1.22-0.718-1.954l8.458-41.609c0.188-0.923,1-1.587,1.942-1.587h0.273c0.946,0,1.759,0.668,1.944,1.596
	l8.273,41.6C60.593,73.767,60.312,74.521,59.721,74.981z M53.56,20.308l-0.845,4.283c-0.184,0.929-0.998,1.599-1.945,1.599h-1.598
	c-0.932,0-1.738-0.649-1.937-1.56l-0.934-4.284c-0.27-1.236,0.672-2.404,1.937-2.404h3.376
	C52.864,17.942,53.802,19.083,53.56,20.308z"/>
</svg>
