<?xml version="1.0" encoding="utf-8"?>
<!-- Generator: Adobe Illustrator 16.0.0, SVG Export Plug-In . SVG Version: 6.00 Build 0)  -->
<!DOCTYPE svg PUBLIC "-//W3C//DTD SVG 1.1//EN" "http://www.w3.org/Graphics/SVG/1.1/DTD/svg11.dtd">
<svg version="1.1" id="Calque_1" xmlns="http://www.w3.org/2000/svg" xmlns:xlink="http://www.w3.org/1999/xlink" x="0px" y="0px"
	 width="100px" height="100px" viewBox="0 0 100 100" enable-background="new 0 0 100 100" xml:space="preserve">
<g>
	<circle fill="#4B4B4B" cx="38.162" cy="49.845" r="2.616"/>
	<circle fill="#4B4B4B" cx="49.995" cy="49.845" r="2.616"/>
	<circle fill="#4B4B4B" cx="61.828" cy="49.845" r="2.616"/>
	<path fill="#4B4B4B" d="M30.237,70.569c1.36,1.36,3.17,2.11,5.094,2.11c1.925,0,3.733-0.75,5.094-2.11
		c1.361-1.36,2.11-3.17,2.11-5.094c0-1.925-0.749-3.733-2.11-5.094L29.888,49.845l10.226-10.227c2.809-2.809,2.809-7.379,0-10.188
		c-1.36-1.36-3.17-2.11-5.094-2.11c-1.925,0-3.733,0.75-5.094,2.11l-15.32,15.32c-2.809,2.809-2.809,7.379,0,10.188L30.237,70.569z
		 M18.36,48.504l15.32-15.32c0.37-0.37,0.855-0.555,1.341-0.555s0.97,0.185,1.34,0.555l0,0c0.741,0.741,0.741,1.941,0,2.682
		L23.722,48.504c-0.741,0.74-0.741,1.94,0,2.681l12.95,12.95c0.74,0.74,0.74,1.94,0,2.681l0,0c-0.37,0.37-0.855,0.556-1.341,0.556
		s-0.97-0.186-1.341-0.556L18.36,51.185C17.62,50.444,17.62,49.244,18.36,48.504z"/>
	<path fill="#4B4B4B" d="M70.073,29.431c-1.36-1.36-3.17-2.11-5.094-2.11s-3.733,0.75-5.094,2.11c-2.81,2.809-2.81,7.379,0,10.188
		l10.226,10.226L59.574,60.382c-2.809,2.809-2.809,7.379,0,10.188c1.361,1.36,3.17,2.11,5.094,2.11c1.925,0,3.733-0.75,5.095-2.11
		l15.631-15.631c2.809-2.809,2.809-7.379,0-10.188L70.073,29.431z M81.64,51.185L66.009,66.815c-0.37,0.37-0.855,0.556-1.341,0.556
		c-0.484,0-0.97-0.185-1.34-0.556c-0.74-0.74-0.74-1.94,0-2.681l12.949-12.95c0.74-0.74,0.74-1.94,0-2.681L63.639,35.865
		c-0.74-0.74-0.74-1.94,0-2.681c0.37-0.37,0.855-0.556,1.341-0.556s0.97,0.186,1.341,0.556L81.64,48.504
		C82.38,49.244,82.38,50.444,81.64,51.185z"/>
</g>
</svg>
