<?xml version="1.0" encoding="utf-8"?>
<!-- Generator: Adobe Illustrator 16.0.0, SVG Export Plug-In . SVG Version: 6.00 Build 0)  -->
<!DOCTYPE svg PUBLIC "-//W3C//DTD SVG 1.1//EN" "http://www.w3.org/Graphics/SVG/1.1/DTD/svg11.dtd">
<svg version="1.1" id="Calque_1" xmlns="http://www.w3.org/2000/svg" xmlns:xlink="http://www.w3.org/1999/xlink" x="0px" y="0px"
	 width="100px" height="100px" viewBox="0 0 100 100" enable-background="new 0 0 100 100" xml:space="preserve">
<g>
	<path fill="#4B4B4B" d="M36.823,80.263c0,3.991,3.247,7.237,7.237,7.237h11.879c3.99,0,7.238-3.246,7.238-7.237v-9.409V69.4
		c2.273-1.921,4.371-4.317,6.252-7.15c2.148-3.239,3.938-6.97,5.172-10.789c1.26-3.894,1.924-7.833,1.924-11.391
		c0-3.688-0.689-7.271-2.051-10.649c-1.322-3.276-3.215-6.221-5.629-8.754c-2.43-2.55-5.268-4.556-8.434-5.96
		C57.115,13.242,53.611,12.5,50,12.5c-3.611,0-7.115,0.742-10.413,2.206c-3.165,1.405-6.003,3.41-8.434,5.96
		c-2.414,2.533-4.307,5.478-5.628,8.754c-1.361,3.378-2.052,6.961-2.052,10.649c0,3.558,0.665,7.498,1.924,11.391
		c1.234,3.819,3.023,7.55,5.173,10.789c1.881,2.833,3.978,5.229,6.252,7.15v1.453V80.263L36.823,80.263z M57.844,72.857v7.405
		c0,1.052-0.852,1.904-1.904,1.904H44.06c-1.052,0-1.904-0.853-1.904-1.904v-1.085h5.792c1.473,0,2.667-1.194,2.667-2.667
		c0-0.724-0.289-1.38-0.757-1.86c-0.484-0.497-1.161-0.807-1.91-0.807h-3.24h-2.552v-0.986v-2.004h15.688V72.857z M28.807,40.07
		c0-12.281,9.488-22.237,21.193-22.237c11.705,0,21.193,9.956,21.193,22.237c0,8.697-4.758,19.744-11.693,25.452h-1.656h-5.178
		V46.243h1.84c1.473,0,2.666-1.194,2.666-2.667s-1.193-2.667-2.666-2.667H50h-4.507c-1.473,0-2.666,1.194-2.666,2.667
		s1.193,2.667,2.666,2.667h1.84v19.279h-5.178H40.5C33.565,59.813,28.807,48.767,28.807,40.07z"/>
</g>
</svg>
