<?xml version="1.0" encoding="utf-8"?>
<!-- Generator: Adobe Illustrator 16.0.0, SVG Export Plug-In . SVG Version: 6.00 Build 0)  -->
<!DOCTYPE svg PUBLIC "-//W3C//DTD SVG 1.1//EN" "http://www.w3.org/Graphics/SVG/1.1/DTD/svg11.dtd">
<svg version="1.1" id="Calque_1" xmlns="http://www.w3.org/2000/svg" xmlns:xlink="http://www.w3.org/1999/xlink" x="0px" y="0px"
	 width="100px" height="100px" viewBox="0 0 100 100" enable-background="new 0 0 100 100" xml:space="preserve">
<path fill="#4B4B4B" d="M19.436,87.5c0.446,0,0.895-0.043,1.333-0.129l10.574-2.063c1.664-0.324,3.177-1.13,4.376-2.328
	l49.558-49.558c2.963-2.963,2.963-7.785,0-10.748l-7.948-7.948c-1.436-1.436-3.344-2.226-5.374-2.226s-3.938,0.791-5.374,2.226
	L17.022,64.283c-1.199,1.199-2.004,2.712-2.328,4.376l-2.063,10.573c-0.398,2.043,0.131,4.135,1.453,5.738
	C15.408,86.578,17.358,87.5,19.436,87.5z M71.954,18.1c0.512,0,1.023,0.195,1.414,0.585l7.948,7.948
	c0.781,0.781,0.781,2.047,0,2.829l-5.586,5.586L64.954,24.271l5.586-5.586C70.931,18.295,71.442,18.1,71.954,18.1z M22.68,66.545
	l38.314-38.313l10.776,10.776L33.457,77.321L22.68,66.545z M28.394,80.178l-8.697,1.697c-0.088,0.017-0.176,0.025-0.261,0.025
	c-0.817,0-1.473-0.752-1.308-1.595l1.697-8.696L28.394,80.178z"/>
</svg>
