<?xml version="1.0" encoding="utf-8"?>
<!-- Generator: Adobe Illustrator 16.0.0, SVG Export Plug-In . SVG Version: 6.00 Build 0)  -->
<!DOCTYPE svg PUBLIC "-//W3C//DTD SVG 1.1//EN" "http://www.w3.org/Graphics/SVG/1.1/DTD/svg11.dtd">
<svg version="1.1" id="Calque_1" xmlns="http://www.w3.org/2000/svg" xmlns:xlink="http://www.w3.org/1999/xlink" x="0px" y="0px"
	 width="100px" height="100px" viewBox="0 0 100 100" enable-background="new 0 0 100 100" xml:space="preserve">
<g>
	<path fill="#4B4B4B" d="M75.839,67.631c1.948-1.217,3.247-3.381,3.247-5.842V32.585c0-0.559-0.068-1.116-0.203-1.658l-3.146-13.17
		l-0.012-0.048l-0.012-0.047c-0.785-3.039-3.526-5.162-6.665-5.162H30.841c-3.166,0-5.913,2.146-6.679,5.217l-0.012,0.046
		L24.14,17.81l-3.037,13.166c-0.126,0.525-0.189,1.064-0.189,1.604v29.21c0,2.461,1.299,4.625,3.247,5.842L13.399,83.313
		c-0.835,1.217-0.526,2.883,0.692,3.718c0.462,0.317,0.989,0.47,1.511,0.47c0.852,0,1.689-0.406,2.208-1.161l1.432-2.087h61.518
		l1.432,2.087c0.519,0.755,1.355,1.161,2.207,1.161c0.521,0,1.049-0.152,1.512-0.47c1.218-0.835,1.527-2.501,0.691-3.718
		L75.839,67.631z M29.933,68.673h40.135l1.567,2.285H28.364L29.933,68.673z M26.263,61.789v-29.21c0-0.125,0.015-0.25,0.045-0.372
		l3.044-13.195c0.17-0.684,0.784-1.164,1.489-1.164h38.207c0.7,0,1.312,0.473,1.486,1.151l3.154,13.202
		c0.032,0.125,0.049,0.254,0.049,0.384v29.204c0,0.636-0.387,1.181-0.937,1.414c-0.185,0.078-0.387,0.121-0.599,0.121H67.63H32.37
		h-4.572c-0.212,0-0.414-0.043-0.598-0.121C26.649,62.97,26.263,62.425,26.263,61.789z M22.911,78.904l1.783-2.598h50.612
		l1.782,2.598H22.911z"/>
	<path fill="#4B4B4B" d="M64.872,48.719h5.349v-5.349v-8.843v-0.566l-0.118-0.554l-1.798-8.399l-0.906-4.229h-4.324H37.093h-4.454
		l-0.806,4.381l-1.545,8.399L30.2,34.04v0.488v8.843v5.349h5.349H64.872L64.872,48.719z M35.548,34.527l1.545-8.399h25.981
		l1.798,8.399v8.843H35.548V34.527z"/>
	<path fill="#4B4B4B" d="M37.176,53.495h-1.438c-1.056,0-1.91,0.855-1.91,1.91v1.438c0,1.056,0.854,1.91,1.91,1.91h1.438
		c1.055,0,1.91-0.854,1.91-1.91v-1.438C39.086,54.351,38.231,53.495,37.176,53.495z"/>
	<path fill="#4B4B4B" d="M64.261,53.495h-1.438c-1.055,0-1.91,0.855-1.91,1.91v1.438c0,1.056,0.855,1.91,1.91,1.91h1.438
		c1.056,0,1.91-0.854,1.91-1.91v-1.438C66.171,54.351,65.316,53.495,64.261,53.495z"/>
</g>
</svg>
